<svg width="1582" height="999" xmlns="http://www.w3.org/2000/svg" xmlns:xlink="http://www.w3.org/1999/xlink" overflow="hidden"><defs><clipPath id="clip0"><rect x="2080" y="183" width="1582" height="999"/></clipPath><clipPath id="clip1"><rect x="2085" y="187" width="1572" height="990"/></clipPath><clipPath id="clip2"><rect x="2085" y="187" width="1572" height="990"/></clipPath><clipPath id="clip3"><rect x="2216" y="238" width="1053" height="837"/></clipPath><clipPath id="clip4"><rect x="2085" y="187" width="1572" height="990"/></clipPath><clipPath id="clip5"><rect x="2216" y="238" width="1053" height="837"/></clipPath><clipPath id="clip6"><rect x="2085" y="187" width="1572" height="990"/></clipPath><clipPath id="clip7"><rect x="2216" y="238" width="1053" height="837"/></clipPath><clipPath id="clip8"><rect x="2085" y="187" width="1572" height="990"/></clipPath><clipPath id="clip9"><rect x="2216" y="238" width="1053" height="837"/></clipPath><clipPath id="clip10"><rect x="2085" y="187" width="1572" height="990"/></clipPath><clipPath id="clip11"><rect x="2085" y="187" width="1572" height="990"/></clipPath><clipPath id="clip12"><rect x="2085" y="187" width="1572" height="990"/></clipPath><clipPath id="clip13"><rect x="2085" y="187" width="1572" height="990"/></clipPath><clipPath id="clip14"><rect x="2085" y="187" width="1572" height="990"/></clipPath><clipPath id="clip15"><rect x="2085" y="187" width="1572" height="990"/></clipPath><clipPath id="clip16"><rect x="2085" y="187" width="1572" height="990"/></clipPath><clipPath id="clip17"><rect x="2085" y="187" width="1572" height="990"/></clipPath><clipPath id="clip18"><rect x="2085" y="187" width="1572" height="990"/></clipPath><clipPath id="clip19"><rect x="2085" y="187" width="1572" height="990"/></clipPath><clipPath id="clip20"><rect x="2085" y="187" width="1572" height="990"/></clipPath><clipPath id="clip21"><rect x="2085" y="187" width="1572" height="990"/></clipPath><clipPath id="clip22"><rect x="2085" y="187" width="1572" height="990"/></clipPath><clipPath id="clip23"><rect x="2085" y="187" width="1572" height="990"/></clipPath><clipPath id="clip24"><rect x="2085" y="187" width="1572" height="990"/></clipPath><clipPath id="clip25"><rect x="2085" y="187" width="1572" height="990"/></clipPath><clipPath id="clip26"><rect x="2085" y="187" width="1572" height="990"/></clipPath><clipPath id="clip27"><rect x="2085" y="187" width="1572" height="990"/></clipPath><clipPath id="clip28"><rect x="2085" y="187" width="1572" height="990"/></clipPath><clipPath id="clip29"><rect x="2085" y="187" width="1572" height="990"/></clipPath><clipPath id="clip30"><rect x="2085" y="187" width="1572" height="990"/></clipPath><clipPath id="clip31"><rect x="2085" y="187" width="1572" height="990"/></clipPath><clipPath id="clip32"><rect x="2085" y="187" width="1572" height="990"/></clipPath><clipPath id="clip33"><rect x="2085" y="187" width="1572" height="990"/></clipPath><clipPath id="clip34"><rect x="2085" y="187" width="1572" height="990"/></clipPath><clipPath id="clip35"><rect x="2085" y="187" width="1572" height="990"/></clipPath><clipPath id="clip36"><rect x="2085" y="187" width="1572" height="990"/></clipPath><clipPath id="clip37"><rect x="2085" y="187" width="1572" height="990"/></clipPath><clipPath id="clip38"><rect x="2085" y="187" width="1572" height="990"/></clipPath><clipPath id="clip39"><rect x="2085" y="187" width="1572" height="990"/></clipPath><clipPath id="clip40"><rect x="2085" y="187" width="1572" height="990"/></clipPath></defs><g clip-path="url(#clip0)" transform="translate(-2080 -183)"><rect x="2085" y="188" width="1572" height="990" fill="#FFFFFF" fill-opacity="1"/><g clip-path="url(#clip1)"><path d="M2216.5 904.53 3265.5 904.53M2216.5 738.524 3265.5 738.524M2216.5 571.519 3265.5 571.519M2216.5 404.513 3265.5 404.513M2216.5 238.5 3265.5 238.5" stroke="#D9D9D9" stroke-width="3.4375" stroke-linecap="butt" stroke-linejoin="round" stroke-miterlimit="10" stroke-opacity="1" fill="none" fill-rule="nonzero"/></g><g clip-path="url(#clip2)"><path d="M2216.5 1071.5 3265.5 1071.5" stroke="#D9D9D9" stroke-width="3.4375" stroke-linecap="butt" stroke-linejoin="round" stroke-miterlimit="10" stroke-opacity="1" fill="none" fill-rule="evenodd"/></g><g clip-path="url(#clip3)"><path d="M2260 958.031 2347.08 982.032 2435.08 978.032 2522.08 982.032 2610.09 985.032 2697.09 982.032 2785.09 928 2872.09 962.032 2960.1 992.033 3047.1 1005 3135.1 948.031 3222 995.033" stroke="#4472C4" stroke-width="10.3125" stroke-linecap="round" stroke-linejoin="round" stroke-miterlimit="10" stroke-opacity="1" fill="none" fill-rule="nonzero"/></g><g clip-path="url(#clip4)"><path d="M2270.92 958.417C2270.92 964.491 2265.99 969.416 2259.92 969.416 2253.84 969.416 2248.92 964.491 2248.92 958.417 2248.92 952.342 2253.84 947.417 2259.92 947.417 2265.99 947.417 2270.92 952.342 2270.92 958.417Z" stroke="#4472C4" stroke-width="3.4375" stroke-linecap="butt" stroke-linejoin="round" stroke-miterlimit="10" stroke-opacity="1" fill="#4472C4" fill-rule="nonzero" fill-opacity="1"/><path d="M2358.92 981.417C2358.92 987.491 2353.99 992.416 2347.92 992.416 2341.84 992.416 2336.92 987.491 2336.92 981.417 2336.92 975.342 2341.84 970.417 2347.92 970.417 2353.99 970.417 2358.92 975.342 2358.92 981.417Z" stroke="#4472C4" stroke-width="3.4375" stroke-linecap="butt" stroke-linejoin="round" stroke-miterlimit="10" stroke-opacity="1" fill="#4472C4" fill-rule="nonzero" fill-opacity="1"/><path d="M2445.92 978.417C2445.92 984.492 2440.99 989.416 2434.92 989.416 2428.84 989.416 2423.92 984.492 2423.92 978.417 2423.92 972.342 2428.84 967.417 2434.92 967.417 2440.99 967.417 2445.92 972.342 2445.92 978.417Z" stroke="#4472C4" stroke-width="3.4375" stroke-linecap="butt" stroke-linejoin="round" stroke-miterlimit="10" stroke-opacity="1" fill="#4472C4" fill-rule="nonzero" fill-opacity="1"/><path d="M2533.92 981.417C2533.92 987.491 2528.99 992.416 2522.92 992.416 2516.84 992.416 2511.92 987.491 2511.92 981.417 2511.92 975.342 2516.84 970.417 2522.92 970.417 2528.99 970.417 2533.92 975.342 2533.92 981.417Z" stroke="#4472C4" stroke-width="3.4375" stroke-linecap="butt" stroke-linejoin="round" stroke-miterlimit="10" stroke-opacity="1" fill="#4472C4" fill-rule="nonzero" fill-opacity="1"/><path d="M2620.92 984.417C2620.92 990.492 2615.99 995.416 2609.92 995.416 2603.84 995.416 2598.92 990.492 2598.92 984.417 2598.92 978.342 2603.84 973.417 2609.92 973.417 2615.99 973.417 2620.92 978.342 2620.92 984.417Z" stroke="#4472C4" stroke-width="3.4375" stroke-linecap="butt" stroke-linejoin="round" stroke-miterlimit="10" stroke-opacity="1" fill="#4472C4" fill-rule="nonzero" fill-opacity="1"/><path d="M2708.92 981.417C2708.92 987.491 2703.99 992.416 2697.92 992.416 2691.84 992.416 2686.92 987.491 2686.92 981.417 2686.92 975.342 2691.84 970.417 2697.92 970.417 2703.99 970.417 2708.92 975.342 2708.92 981.417Z" stroke="#4472C4" stroke-width="3.4375" stroke-linecap="butt" stroke-linejoin="round" stroke-miterlimit="10" stroke-opacity="1" fill="#4472C4" fill-rule="nonzero" fill-opacity="1"/><path d="M2795.92 928.417C2795.92 934.492 2790.99 939.416 2784.92 939.416 2778.84 939.416 2773.92 934.492 2773.92 928.417 2773.92 922.342 2778.84 917.417 2784.92 917.417 2790.99 917.417 2795.92 922.342 2795.92 928.417Z" stroke="#4472C4" stroke-width="3.4375" stroke-linecap="butt" stroke-linejoin="round" stroke-miterlimit="10" stroke-opacity="1" fill="#4472C4" fill-rule="nonzero" fill-opacity="1"/><path d="M2883.92 961.417C2883.92 967.492 2878.99 972.416 2872.92 972.416 2866.84 972.416 2861.92 967.492 2861.92 961.417 2861.92 955.342 2866.84 950.417 2872.92 950.417 2878.99 950.417 2883.92 955.342 2883.92 961.417Z" stroke="#4472C4" stroke-width="3.4375" stroke-linecap="butt" stroke-linejoin="round" stroke-miterlimit="10" stroke-opacity="1" fill="#4472C4" fill-rule="nonzero" fill-opacity="1"/><path d="M2970.92 991.417C2970.92 997.491 2965.99 1002.42 2959.92 1002.42 2953.84 1002.42 2948.92 997.491 2948.92 991.417 2948.92 985.342 2953.84 980.417 2959.92 980.417 2965.99 980.417 2970.92 985.342 2970.92 991.417Z" stroke="#4472C4" stroke-width="3.4375" stroke-linecap="butt" stroke-linejoin="round" stroke-miterlimit="10" stroke-opacity="1" fill="#4472C4" fill-rule="nonzero" fill-opacity="1"/><path d="M3058.92 1004.42C3058.92 1010.49 3053.99 1015.42 3047.92 1015.42 3041.84 1015.42 3036.92 1010.49 3036.92 1004.42 3036.92 998.342 3041.84 993.417 3047.92 993.417 3053.99 993.417 3058.92 998.342 3058.92 1004.42Z" stroke="#4472C4" stroke-width="3.4375" stroke-linecap="butt" stroke-linejoin="round" stroke-miterlimit="10" stroke-opacity="1" fill="#4472C4" fill-rule="nonzero" fill-opacity="1"/><path d="M3145.92 948.417C3145.92 954.491 3140.99 959.416 3134.92 959.416 3128.84 959.416 3123.92 954.491 3123.92 948.417 3123.92 942.342 3128.84 937.417 3134.92 937.417 3140.99 937.417 3145.92 942.342 3145.92 948.417Z" stroke="#4472C4" stroke-width="3.4375" stroke-linecap="butt" stroke-linejoin="round" stroke-miterlimit="10" stroke-opacity="1" fill="#4472C4" fill-rule="nonzero" fill-opacity="1"/><path d="M3233.92 994.417C3233.92 1000.49 3228.99 1005.42 3222.92 1005.42 3216.84 1005.42 3211.92 1000.49 3211.92 994.417 3211.92 988.342 3216.84 983.417 3222.92 983.417 3228.99 983.417 3233.92 988.342 3233.92 994.417Z" stroke="#4472C4" stroke-width="3.4375" stroke-linecap="butt" stroke-linejoin="round" stroke-miterlimit="10" stroke-opacity="1" fill="#4472C4" fill-rule="nonzero" fill-opacity="1"/></g><g clip-path="url(#clip5)"><path d="M2260 575.019 2347.08 718.024 2435.08 712.023 2522.08 732 2610.09 652.021 2697.09 582.019 2785.09 572 2872.09 625.021 2960.1 648.021 3047.1 575.019 3135.1 692.023 3222 678.022" stroke="#ED7D31" stroke-width="10.3125" stroke-linecap="round" stroke-linejoin="round" stroke-miterlimit="10" stroke-opacity="1" fill="none" fill-rule="nonzero"/></g><g clip-path="url(#clip6)"><path d="M2270.92 574.417C2270.92 580.491 2265.99 585.416 2259.92 585.416 2253.84 585.416 2248.92 580.491 2248.92 574.417 2248.92 568.342 2253.84 563.417 2259.92 563.417 2265.99 563.417 2270.92 568.342 2270.92 574.417Z" stroke="#ED7D31" stroke-width="3.4375" stroke-linecap="butt" stroke-linejoin="round" stroke-miterlimit="10" stroke-opacity="1" fill="#ED7D31" fill-rule="nonzero" fill-opacity="1"/><path d="M2358.92 718.417C2358.92 724.492 2353.99 729.416 2347.92 729.416 2341.84 729.416 2336.92 724.492 2336.92 718.417 2336.92 712.342 2341.84 707.417 2347.92 707.417 2353.99 707.417 2358.92 712.342 2358.92 718.417Z" stroke="#ED7D31" stroke-width="3.4375" stroke-linecap="butt" stroke-linejoin="round" stroke-miterlimit="10" stroke-opacity="1" fill="#ED7D31" fill-rule="nonzero" fill-opacity="1"/><path d="M2445.92 711.417C2445.92 717.492 2440.99 722.416 2434.92 722.416 2428.84 722.416 2423.92 717.492 2423.92 711.417 2423.92 705.342 2428.84 700.417 2434.92 700.417 2440.99 700.417 2445.92 705.342 2445.92 711.417Z" stroke="#ED7D31" stroke-width="3.4375" stroke-linecap="butt" stroke-linejoin="round" stroke-miterlimit="10" stroke-opacity="1" fill="#ED7D31" fill-rule="nonzero" fill-opacity="1"/><path d="M2533.92 731.417C2533.92 737.492 2528.99 742.416 2522.92 742.416 2516.84 742.416 2511.92 737.492 2511.92 731.417 2511.92 725.342 2516.84 720.417 2522.92 720.417 2528.99 720.417 2533.92 725.342 2533.92 731.417Z" stroke="#ED7D31" stroke-width="3.4375" stroke-linecap="butt" stroke-linejoin="round" stroke-miterlimit="10" stroke-opacity="1" fill="#ED7D31" fill-rule="nonzero" fill-opacity="1"/><path d="M2620.92 651.417C2620.92 657.491 2615.99 662.416 2609.92 662.416 2603.84 662.416 2598.92 657.491 2598.92 651.417 2598.92 645.342 2603.84 640.417 2609.92 640.417 2615.99 640.417 2620.92 645.342 2620.92 651.417Z" stroke="#ED7D31" stroke-width="3.4375" stroke-linecap="butt" stroke-linejoin="round" stroke-miterlimit="10" stroke-opacity="1" fill="#ED7D31" fill-rule="nonzero" fill-opacity="1"/><path d="M2708.92 581.417C2708.92 587.492 2703.99 592.416 2697.92 592.416 2691.84 592.416 2686.92 587.492 2686.92 581.417 2686.92 575.342 2691.84 570.417 2697.92 570.417 2703.99 570.417 2708.92 575.342 2708.92 581.417Z" stroke="#ED7D31" stroke-width="3.4375" stroke-linecap="butt" stroke-linejoin="round" stroke-miterlimit="10" stroke-opacity="1" fill="#ED7D31" fill-rule="nonzero" fill-opacity="1"/><path d="M2795.92 571.417C2795.92 577.492 2790.99 582.416 2784.92 582.416 2778.84 582.416 2773.92 577.492 2773.92 571.417 2773.92 565.342 2778.84 560.417 2784.92 560.417 2790.99 560.417 2795.92 565.342 2795.92 571.417Z" stroke="#ED7D31" stroke-width="3.4375" stroke-linecap="butt" stroke-linejoin="round" stroke-miterlimit="10" stroke-opacity="1" fill="#ED7D31" fill-rule="nonzero" fill-opacity="1"/><path d="M2883.92 624.417C2883.92 630.492 2878.99 635.416 2872.92 635.416 2866.84 635.416 2861.92 630.492 2861.92 624.417 2861.92 618.342 2866.84 613.417 2872.92 613.417 2878.99 613.417 2883.92 618.342 2883.92 624.417Z" stroke="#ED7D31" stroke-width="3.4375" stroke-linecap="butt" stroke-linejoin="round" stroke-miterlimit="10" stroke-opacity="1" fill="#ED7D31" fill-rule="nonzero" fill-opacity="1"/><path d="M2970.92 648.417C2970.92 654.492 2965.99 659.416 2959.92 659.416 2953.84 659.416 2948.92 654.492 2948.92 648.417 2948.92 642.342 2953.84 637.417 2959.92 637.417 2965.99 637.417 2970.92 642.342 2970.92 648.417Z" stroke="#ED7D31" stroke-width="3.4375" stroke-linecap="butt" stroke-linejoin="round" stroke-miterlimit="10" stroke-opacity="1" fill="#ED7D31" fill-rule="nonzero" fill-opacity="1"/><path d="M3058.92 574.417C3058.92 580.491 3053.99 585.416 3047.92 585.416 3041.84 585.416 3036.92 580.491 3036.92 574.417 3036.92 568.342 3041.84 563.417 3047.92 563.417 3053.99 563.417 3058.92 568.342 3058.92 574.417Z" stroke="#ED7D31" stroke-width="3.4375" stroke-linecap="butt" stroke-linejoin="round" stroke-miterlimit="10" stroke-opacity="1" fill="#ED7D31" fill-rule="nonzero" fill-opacity="1"/><path d="M3145.92 691.417C3145.92 697.492 3140.99 702.416 3134.92 702.416 3128.84 702.416 3123.92 697.492 3123.92 691.417 3123.92 685.342 3128.84 680.417 3134.92 680.417 3140.99 680.417 3145.92 685.342 3145.92 691.417Z" stroke="#ED7D31" stroke-width="3.4375" stroke-linecap="butt" stroke-linejoin="round" stroke-miterlimit="10" stroke-opacity="1" fill="#ED7D31" fill-rule="nonzero" fill-opacity="1"/><path d="M3233.92 678.417C3233.92 684.492 3228.99 689.416 3222.92 689.416 3216.84 689.416 3211.92 684.492 3211.92 678.417 3211.92 672.342 3216.84 667.417 3222.92 667.417 3228.99 667.417 3233.92 672.342 3233.92 678.417Z" stroke="#ED7D31" stroke-width="3.4375" stroke-linecap="butt" stroke-linejoin="round" stroke-miterlimit="10" stroke-opacity="1" fill="#ED7D31" fill-rule="nonzero" fill-opacity="1"/></g><g clip-path="url(#clip7)"><path d="M2260 1065 2347.08 1012.03 2435 972" stroke="#A5A5A5" stroke-width="10.3125" stroke-linecap="round" stroke-linejoin="round" stroke-miterlimit="10" stroke-opacity="1" fill="none" fill-rule="nonzero"/></g><g clip-path="url(#clip8)"><path d="M2270.92 1064.42C2270.92 1070.49 2265.99 1075.42 2259.92 1075.42 2253.84 1075.42 2248.92 1070.49 2248.92 1064.42 2248.92 1058.34 2253.84 1053.42 2259.92 1053.42 2265.99 1053.42 2270.92 1058.34 2270.92 1064.42Z" stroke="#A5A5A5" stroke-width="3.4375" stroke-linecap="butt" stroke-linejoin="round" stroke-miterlimit="10" stroke-opacity="1" fill="#A5A5A5" fill-rule="nonzero" fill-opacity="1"/><path d="M2358.92 1011.42C2358.92 1017.49 2353.99 1022.42 2347.92 1022.42 2341.84 1022.42 2336.92 1017.49 2336.92 1011.42 2336.92 1005.34 2341.84 1000.42 2347.92 1000.42 2353.99 1000.42 2358.92 1005.34 2358.92 1011.42Z" stroke="#A5A5A5" stroke-width="3.4375" stroke-linecap="butt" stroke-linejoin="round" stroke-miterlimit="10" stroke-opacity="1" fill="#A5A5A5" fill-rule="nonzero" fill-opacity="1"/><path d="M2445.92 971.417C2445.92 977.492 2440.99 982.416 2434.92 982.416 2428.84 982.416 2423.92 977.492 2423.92 971.417 2423.92 965.342 2428.84 960.417 2434.92 960.417 2440.99 960.417 2445.92 965.342 2445.92 971.417Z" stroke="#A5A5A5" stroke-width="3.4375" stroke-linecap="butt" stroke-linejoin="round" stroke-miterlimit="10" stroke-opacity="1" fill="#A5A5A5" fill-rule="nonzero" fill-opacity="1"/></g><g clip-path="url(#clip9)"><path d="M2260 465.015 2347.08 398.013 2435.08 472.016 2522.08 432.014 2610.09 292 2697.09 368.012 2785.09 425.014 2872.09 518.017 2960.1 582.019 3047.1 462.015 3135.1 462.015 3222 702" stroke="#FFC000" stroke-width="10.3125" stroke-linecap="round" stroke-linejoin="round" stroke-miterlimit="10" stroke-opacity="1" fill="none" fill-rule="nonzero"/></g><g clip-path="url(#clip10)"><path d="M2270.92 464.417C2270.92 470.491 2265.99 475.416 2259.92 475.416 2253.84 475.416 2248.92 470.491 2248.92 464.417 2248.92 458.342 2253.84 453.417 2259.92 453.417 2265.99 453.417 2270.92 458.342 2270.92 464.417Z" stroke="#FFC000" stroke-width="3.4375" stroke-linecap="butt" stroke-linejoin="round" stroke-miterlimit="10" stroke-opacity="1" fill="#FFC000" fill-rule="nonzero" fill-opacity="1"/><path d="M2358.92 398.417C2358.92 404.491 2353.99 409.416 2347.92 409.416 2341.84 409.416 2336.92 404.491 2336.92 398.417 2336.92 392.342 2341.84 387.417 2347.92 387.417 2353.99 387.417 2358.92 392.342 2358.92 398.417Z" stroke="#FFC000" stroke-width="3.4375" stroke-linecap="butt" stroke-linejoin="round" stroke-miterlimit="10" stroke-opacity="1" fill="#FFC000" fill-rule="nonzero" fill-opacity="1"/><path d="M2445.92 471.417C2445.92 477.492 2440.99 482.416 2434.92 482.416 2428.84 482.416 2423.92 477.492 2423.92 471.417 2423.92 465.342 2428.84 460.417 2434.92 460.417 2440.99 460.417 2445.92 465.342 2445.92 471.417Z" stroke="#FFC000" stroke-width="3.4375" stroke-linecap="butt" stroke-linejoin="round" stroke-miterlimit="10" stroke-opacity="1" fill="#FFC000" fill-rule="nonzero" fill-opacity="1"/><path d="M2533.92 431.417C2533.92 437.491 2528.99 442.416 2522.92 442.416 2516.84 442.416 2511.92 437.491 2511.92 431.417 2511.92 425.342 2516.84 420.417 2522.92 420.417 2528.99 420.417 2533.92 425.342 2533.92 431.417Z" stroke="#FFC000" stroke-width="3.4375" stroke-linecap="butt" stroke-linejoin="round" stroke-miterlimit="10" stroke-opacity="1" fill="#FFC000" fill-rule="nonzero" fill-opacity="1"/><path d="M2620.92 291.417C2620.92 297.492 2615.99 302.416 2609.92 302.416 2603.84 302.416 2598.92 297.492 2598.92 291.417 2598.92 285.342 2603.84 280.417 2609.92 280.417 2615.99 280.417 2620.92 285.342 2620.92 291.417Z" stroke="#FFC000" stroke-width="3.4375" stroke-linecap="butt" stroke-linejoin="round" stroke-miterlimit="10" stroke-opacity="1" fill="#FFC000" fill-rule="nonzero" fill-opacity="1"/><path d="M2708.92 368.417C2708.92 374.492 2703.99 379.416 2697.92 379.416 2691.84 379.416 2686.92 374.492 2686.92 368.417 2686.92 362.342 2691.84 357.417 2697.92 357.417 2703.99 357.417 2708.92 362.342 2708.92 368.417Z" stroke="#FFC000" stroke-width="3.4375" stroke-linecap="butt" stroke-linejoin="round" stroke-miterlimit="10" stroke-opacity="1" fill="#FFC000" fill-rule="nonzero" fill-opacity="1"/><path d="M2795.92 424.417C2795.92 430.492 2790.99 435.416 2784.92 435.416 2778.84 435.416 2773.92 430.492 2773.92 424.417 2773.92 418.342 2778.84 413.417 2784.92 413.417 2790.99 413.417 2795.92 418.342 2795.92 424.417Z" stroke="#FFC000" stroke-width="3.4375" stroke-linecap="butt" stroke-linejoin="round" stroke-miterlimit="10" stroke-opacity="1" fill="#FFC000" fill-rule="nonzero" fill-opacity="1"/><path d="M2883.92 518.417C2883.92 524.491 2878.99 529.416 2872.92 529.416 2866.84 529.416 2861.92 524.491 2861.92 518.417 2861.92 512.342 2866.84 507.417 2872.92 507.417 2878.99 507.417 2883.92 512.342 2883.92 518.417Z" stroke="#FFC000" stroke-width="3.4375" stroke-linecap="butt" stroke-linejoin="round" stroke-miterlimit="10" stroke-opacity="1" fill="#FFC000" fill-rule="nonzero" fill-opacity="1"/><path d="M2970.92 581.417C2970.92 587.492 2965.99 592.416 2959.92 592.416 2953.84 592.416 2948.92 587.492 2948.92 581.417 2948.92 575.342 2953.84 570.417 2959.92 570.417 2965.99 570.417 2970.92 575.342 2970.92 581.417Z" stroke="#FFC000" stroke-width="3.4375" stroke-linecap="butt" stroke-linejoin="round" stroke-miterlimit="10" stroke-opacity="1" fill="#FFC000" fill-rule="nonzero" fill-opacity="1"/><path d="M3058.92 461.417C3058.92 467.492 3053.99 472.416 3047.92 472.416 3041.84 472.416 3036.92 467.492 3036.92 461.417 3036.92 455.342 3041.84 450.417 3047.92 450.417 3053.99 450.417 3058.92 455.342 3058.92 461.417Z" stroke="#FFC000" stroke-width="3.4375" stroke-linecap="butt" stroke-linejoin="round" stroke-miterlimit="10" stroke-opacity="1" fill="#FFC000" fill-rule="nonzero" fill-opacity="1"/><path d="M3145.92 461.417C3145.92 467.492 3140.99 472.416 3134.92 472.416 3128.84 472.416 3123.92 467.492 3123.92 461.417 3123.92 455.342 3128.84 450.417 3134.92 450.417 3140.99 450.417 3145.92 455.342 3145.92 461.417Z" stroke="#FFC000" stroke-width="3.4375" stroke-linecap="butt" stroke-linejoin="round" stroke-miterlimit="10" stroke-opacity="1" fill="#FFC000" fill-rule="nonzero" fill-opacity="1"/><path d="M3233.92 701.417C3233.92 707.492 3228.99 712.416 3222.92 712.416 3216.84 712.416 3211.92 707.492 3211.92 701.417 3211.92 695.342 3216.84 690.417 3222.92 690.417 3228.99 690.417 3233.92 695.342 3233.92 701.417Z" stroke="#FFC000" stroke-width="3.4375" stroke-linecap="butt" stroke-linejoin="round" stroke-miterlimit="10" stroke-opacity="1" fill="#FFC000" fill-rule="nonzero" fill-opacity="1"/></g><g clip-path="url(#clip11)"><text fill="#595959" fill-opacity="1" font-family="Calibri,Calibri_MSFontService,sans-serif" font-style="normal" font-variant="normal" font-weight="400" font-stretch="normal" font-size="41" text-anchor="start" direction="ltr" writing-mode="lr-tb" unicode-bidi="normal" text-decoration="none" transform="matrix(1 0 0 1 2157.01 1082)">0</text></g><g clip-path="url(#clip12)"><text fill="#595959" fill-opacity="1" font-family="Calibri,Calibri_MSFontService,sans-serif" font-style="normal" font-variant="normal" font-weight="400" font-stretch="normal" font-size="41" text-anchor="start" direction="ltr" writing-mode="lr-tb" unicode-bidi="normal" text-decoration="none" transform="matrix(1 0 0 1 2136.11 916)">50</text></g><g clip-path="url(#clip13)"><text fill="#595959" fill-opacity="1" font-family="Calibri,Calibri_MSFontService,sans-serif" font-style="normal" font-variant="normal" font-weight="400" font-stretch="normal" font-size="41" text-anchor="start" direction="ltr" writing-mode="lr-tb" unicode-bidi="normal" text-decoration="none" transform="matrix(1 0 0 1 2115.21 749)">100</text></g><g clip-path="url(#clip14)"><text fill="#595959" fill-opacity="1" font-family="Calibri,Calibri_MSFontService,sans-serif" font-style="normal" font-variant="normal" font-weight="400" font-stretch="normal" font-size="41" text-anchor="start" direction="ltr" writing-mode="lr-tb" unicode-bidi="normal" text-decoration="none" transform="matrix(1 0 0 1 2115.21 582)">150</text></g><g clip-path="url(#clip15)"><text fill="#595959" fill-opacity="1" font-family="Calibri,Calibri_MSFontService,sans-serif" font-style="normal" font-variant="normal" font-weight="400" font-stretch="normal" font-size="41" text-anchor="start" direction="ltr" writing-mode="lr-tb" unicode-bidi="normal" text-decoration="none" transform="matrix(1 0 0 1 2115.21 416)">200</text></g><g clip-path="url(#clip16)"><text fill="#595959" fill-opacity="1" font-family="Calibri,Calibri_MSFontService,sans-serif" font-style="normal" font-variant="normal" font-weight="400" font-stretch="normal" font-size="41" text-anchor="start" direction="ltr" writing-mode="lr-tb" unicode-bidi="normal" text-decoration="none" transform="matrix(1 0 0 1 2115.21 249)">250</text></g><g clip-path="url(#clip17)"><text fill="#595959" fill-opacity="1" font-family="Calibri,Calibri_MSFontService,sans-serif" font-style="normal" font-variant="normal" font-weight="400" font-stretch="normal" font-size="41" text-anchor="start" direction="ltr" writing-mode="lr-tb" unicode-bidi="normal" text-decoration="none" transform="matrix(1 0 0 1 2232.61 1137)">Jan</text></g><g clip-path="url(#clip18)"><text fill="#595959" fill-opacity="1" font-family="Calibri,Calibri_MSFontService,sans-serif" font-style="normal" font-variant="normal" font-weight="400" font-stretch="normal" font-size="41" text-anchor="start" direction="ltr" writing-mode="lr-tb" unicode-bidi="normal" text-decoration="none" transform="matrix(1 0 0 1 2316.8 1137)">Feb</text></g><g clip-path="url(#clip19)"><text fill="#595959" fill-opacity="1" font-family="Calibri,Calibri_MSFontService,sans-serif" font-style="normal" font-variant="normal" font-weight="400" font-stretch="normal" font-size="41" text-anchor="start" direction="ltr" writing-mode="lr-tb" unicode-bidi="normal" text-decoration="none" transform="matrix(1 0 0 1 2400.16 1137)">Mar</text></g><g clip-path="url(#clip20)"><text fill="#595959" fill-opacity="1" font-family="Calibri,Calibri_MSFontService,sans-serif" font-style="normal" font-variant="normal" font-weight="400" font-stretch="normal" font-size="41" text-anchor="start" direction="ltr" writing-mode="lr-tb" unicode-bidi="normal" text-decoration="none" transform="matrix(1 0 0 1 2492.38 1137)">Apr</text></g><g clip-path="url(#clip21)"><text fill="#595959" fill-opacity="1" font-family="Calibri,Calibri_MSFontService,sans-serif" font-style="normal" font-variant="normal" font-weight="400" font-stretch="normal" font-size="41" text-anchor="start" direction="ltr" writing-mode="lr-tb" unicode-bidi="normal" text-decoration="none" transform="matrix(1 0 0 1 2572.99 1137)">May</text></g><g clip-path="url(#clip22)"><text fill="#595959" fill-opacity="1" font-family="Calibri,Calibri_MSFontService,sans-serif" font-style="normal" font-variant="normal" font-weight="400" font-stretch="normal" font-size="41" text-anchor="start" direction="ltr" writing-mode="lr-tb" unicode-bidi="normal" text-decoration="none" transform="matrix(1 0 0 1 2669.07 1137)">Jun</text></g><g clip-path="url(#clip23)"><text fill="#595959" fill-opacity="1" font-family="Calibri,Calibri_MSFontService,sans-serif" font-style="normal" font-variant="normal" font-weight="400" font-stretch="normal" font-size="41" text-anchor="start" direction="ltr" writing-mode="lr-tb" unicode-bidi="normal" text-decoration="none" transform="matrix(1 0 0 1 2762.67 1137)">Jul</text></g><g clip-path="url(#clip24)"><text fill="#595959" fill-opacity="1" font-family="Calibri,Calibri_MSFontService,sans-serif" font-style="normal" font-variant="normal" font-weight="400" font-stretch="normal" font-size="41" text-anchor="start" direction="ltr" writing-mode="lr-tb" unicode-bidi="normal" text-decoration="none" transform="matrix(1 0 0 1 2839.82 1137)">Aug</text></g><g clip-path="url(#clip25)"><text fill="#595959" fill-opacity="1" font-family="Calibri,Calibri_MSFontService,sans-serif" font-style="normal" font-variant="normal" font-weight="400" font-stretch="normal" font-size="41" text-anchor="start" direction="ltr" writing-mode="lr-tb" unicode-bidi="normal" text-decoration="none" transform="matrix(1 0 0 1 2929.21 1137)">Sep</text></g><g clip-path="url(#clip26)"><text fill="#595959" fill-opacity="1" font-family="Calibri,Calibri_MSFontService,sans-serif" font-style="normal" font-variant="normal" font-weight="400" font-stretch="normal" font-size="41" text-anchor="start" direction="ltr" writing-mode="lr-tb" unicode-bidi="normal" text-decoration="none" transform="matrix(1 0 0 1 3017.99 1137)">Oct</text></g><g clip-path="url(#clip27)"><text fill="#595959" fill-opacity="1" font-family="Calibri,Calibri_MSFontService,sans-serif" font-style="normal" font-variant="normal" font-weight="400" font-stretch="normal" font-size="41" text-anchor="start" direction="ltr" writing-mode="lr-tb" unicode-bidi="normal" text-decoration="none" transform="matrix(1 0 0 1 3101.26 1137)">Nov</text></g><g clip-path="url(#clip28)"><text fill="#595959" fill-opacity="1" font-family="Calibri,Calibri_MSFontService,sans-serif" font-style="normal" font-variant="normal" font-weight="400" font-stretch="normal" font-size="41" text-anchor="start" direction="ltr" writing-mode="lr-tb" unicode-bidi="normal" text-decoration="none" transform="matrix(1 0 0 1 3190.58 1137)">Dec</text></g><g clip-path="url(#clip29)"><path d="M3338 569 3426 569" stroke="#4472C4" stroke-width="10.3125" stroke-linecap="round" stroke-linejoin="round" stroke-miterlimit="10" stroke-opacity="1" fill="none" fill-rule="evenodd"/></g><g clip-path="url(#clip30)"><path d="M3392 568C3392 574.075 3387.07 579 3381 579 3374.93 579 3370 574.075 3370 568 3370 561.925 3374.93 557 3381 557 3387.07 557 3392 561.925 3392 568Z" stroke="#4472C4" stroke-width="3.4375" stroke-linecap="butt" stroke-linejoin="round" stroke-miterlimit="10" stroke-opacity="1" fill="#4472C4" fill-rule="nonzero" fill-opacity="1"/></g><g clip-path="url(#clip31)"><text fill="#595959" fill-opacity="1" font-family="Calibri,Calibri_MSFontService,sans-serif" font-style="normal" font-variant="normal" font-weight="400" font-stretch="normal" font-size="41" text-anchor="start" direction="ltr" writing-mode="lr-tb" unicode-bidi="normal" text-decoration="none" transform="matrix(1 0 0 1 3435 579)">canceled</text></g><g clip-path="url(#clip32)"><path d="M3338 646 3426 646" stroke="#ED7D31" stroke-width="10.3125" stroke-linecap="round" stroke-linejoin="round" stroke-miterlimit="10" stroke-opacity="1" fill="none" fill-rule="evenodd"/></g><g clip-path="url(#clip33)"><path d="M3392 645C3392 651.075 3387.07 656 3381 656 3374.93 656 3370 651.075 3370 645 3370 638.925 3374.93 634 3381 634 3387.07 634 3392 638.925 3392 645Z" stroke="#ED7D31" stroke-width="3.4375" stroke-linecap="butt" stroke-linejoin="round" stroke-miterlimit="10" stroke-opacity="1" fill="#ED7D31" fill-rule="nonzero" fill-opacity="1"/></g><g clip-path="url(#clip34)"><text fill="#595959" fill-opacity="1" font-family="Calibri,Calibri_MSFontService,sans-serif" font-style="normal" font-variant="normal" font-weight="400" font-stretch="normal" font-size="41" text-anchor="start" direction="ltr" writing-mode="lr-tb" unicode-bidi="normal" text-decoration="none" transform="matrix(1 0 0 1 3435 657)">failed</text></g><g clip-path="url(#clip35)"><path d="M3338 723 3426 723" stroke="#A5A5A5" stroke-width="10.3125" stroke-linecap="round" stroke-linejoin="round" stroke-miterlimit="10" stroke-opacity="1" fill="none" fill-rule="evenodd"/></g><g clip-path="url(#clip36)"><path d="M3392 723C3392 729.075 3387.07 734 3381 734 3374.93 734 3370 729.075 3370 723 3370 716.925 3374.93 712 3381 712 3387.07 712 3392 716.925 3392 723Z" stroke="#A5A5A5" stroke-width="3.4375" stroke-linecap="butt" stroke-linejoin="round" stroke-miterlimit="10" stroke-opacity="1" fill="#A5A5A5" fill-rule="nonzero" fill-opacity="1"/></g><g clip-path="url(#clip37)"><text fill="#595959" fill-opacity="1" font-family="Calibri,Calibri_MSFontService,sans-serif" font-style="normal" font-variant="normal" font-weight="400" font-stretch="normal" font-size="41" text-anchor="start" direction="ltr" writing-mode="lr-tb" unicode-bidi="normal" text-decoration="none" transform="matrix(1 0 0 1 3435 734)">live</text></g><g clip-path="url(#clip38)"><path d="M3338 801 3426 801" stroke="#FFC000" stroke-width="10.3125" stroke-linecap="round" stroke-linejoin="round" stroke-miterlimit="10" stroke-opacity="1" fill="none" fill-rule="evenodd"/></g><g clip-path="url(#clip39)"><path d="M3392 800C3392 806.075 3387.07 811 3381 811 3374.93 811 3370 806.075 3370 800 3370 793.925 3374.93 789 3381 789 3387.07 789 3392 793.925 3392 800Z" stroke="#FFC000" stroke-width="3.4375" stroke-linecap="butt" stroke-linejoin="round" stroke-miterlimit="10" stroke-opacity="1" fill="#FFC000" fill-rule="nonzero" fill-opacity="1"/></g><g clip-path="url(#clip40)"><text fill="#595959" fill-opacity="1" font-family="Calibri,Calibri_MSFontService,sans-serif" font-style="normal" font-variant="normal" font-weight="400" font-stretch="normal" font-size="41" text-anchor="start" direction="ltr" writing-mode="lr-tb" unicode-bidi="normal" text-decoration="none" transform="matrix(1 0 0 1 3435 811)">successful</text></g><rect x="2085.5" y="188.5" width="1572" height="990" stroke="#D9D9D9" stroke-width="3.4375" stroke-linecap="butt" stroke-linejoin="round" stroke-miterlimit="10" stroke-opacity="1" fill="none"/></g></svg>