<svg width="1146" height="999" xmlns="http://www.w3.org/2000/svg" xmlns:xlink="http://www.w3.org/1999/xlink" overflow="hidden"><defs><clipPath id="clip0"><rect x="2103" y="119" width="1146" height="999"/></clipPath><clipPath id="clip1"><rect x="2108" y="123" width="1137" height="990"/></clipPath><clipPath id="clip2"><rect x="2239" y="174" width="682" height="836"/></clipPath><clipPath id="clip3"><rect x="2239" y="174" width="682" height="836"/></clipPath><clipPath id="clip4"><rect x="2239" y="174" width="682" height="836"/></clipPath><clipPath id="clip5"><rect x="2239" y="174" width="682" height="836"/></clipPath><clipPath id="clip6"><rect x="2108" y="123" width="1137" height="990"/></clipPath><clipPath id="clip7"><rect x="2108" y="123" width="1137" height="990"/></clipPath><clipPath id="clip8"><rect x="2108" y="123" width="1137" height="990"/></clipPath><clipPath id="clip9"><rect x="2108" y="123" width="1137" height="990"/></clipPath><clipPath id="clip10"><rect x="2108" y="123" width="1137" height="990"/></clipPath><clipPath id="clip11"><rect x="2108" y="123" width="1137" height="990"/></clipPath><clipPath id="clip12"><rect x="2108" y="123" width="1137" height="990"/></clipPath><clipPath id="clip13"><rect x="2108" y="123" width="1137" height="990"/></clipPath><clipPath id="clip14"><rect x="2108" y="123" width="1137" height="990"/></clipPath><clipPath id="clip15"><rect x="2108" y="123" width="1137" height="990"/></clipPath><clipPath id="clip16"><rect x="2108" y="123" width="1137" height="990"/></clipPath><clipPath id="clip17"><rect x="2108" y="123" width="1137" height="990"/></clipPath><clipPath id="clip18"><rect x="2108" y="123" width="1137" height="990"/></clipPath><clipPath id="clip19"><rect x="2108" y="123" width="1137" height="990"/></clipPath><clipPath id="clip20"><rect x="2108" y="123" width="1137" height="990"/></clipPath><clipPath id="clip21"><rect x="2108" y="123" width="1137" height="990"/></clipPath><clipPath id="clip22"><rect x="2108" y="123" width="1137" height="990"/></clipPath><clipPath id="clip23"><rect x="2108" y="123" width="1137" height="990"/></clipPath><clipPath id="clip24"><rect x="2108" y="123" width="1137" height="990"/></clipPath><clipPath id="clip25"><rect x="2108" y="123" width="1137" height="990"/></clipPath></defs><g clip-path="url(#clip0)" transform="translate(-2103 -119)"><rect x="2108" y="124" width="1137" height="990" fill="#FFFFFF" fill-opacity="1"/><g clip-path="url(#clip1)"><path d="M2239.5 888.529 2918.5 888.529M2239.5 769.525 2918.5 769.525M2239.5 650.522 2918.5 650.522M2239.5 531.518 2918.5 531.518M2239.5 412.514 2918.5 412.514M2239.5 293.51 2918.5 293.51M2239.5 174.5 2918.5 174.5" stroke="#D9D9D9" stroke-width="3.4375" stroke-linecap="butt" stroke-linejoin="round" stroke-miterlimit="10" stroke-opacity="1" fill="none" fill-rule="nonzero"/></g><g clip-path="url(#clip2)"><path d="M2317.08 996.033 2388.08 996.033 2388.08 1007 2317.08 1007ZM2769.09 1005.03 2840.09 1005.03 2840.09 1007 2769.09 1007Z" fill="#4472C4" fill-rule="nonzero" fill-opacity="1"/></g><g clip-path="url(#clip3)"><path d="M2317.08 969.032 2388.08 969.032 2388.08 996.033 2317.08 996.033ZM2543.08 841.028 2614.09 841.028 2614.09 1007 2543.08 1007ZM2769.09 986.032 2840.09 986.032 2840.09 1005.03 2769.09 1005.03Z" fill="#ED7D31" fill-rule="nonzero" fill-opacity="1"/></g><g clip-path="url(#clip4)"><path d="M2543.08 826.027 2614.09 826.027 2614.09 841.028 2543.08 841.028Z" fill="#A5A5A5" fill-rule="nonzero" fill-opacity="1"/></g><g clip-path="url(#clip5)"><path d="M2317.08 946.031 2388.08 946.031 2388.08 969.032 2317.08 969.032ZM2543.08 260.009 2614.09 260.009 2614.09 826.027 2543.08 826.027ZM2769.09 962.032 2840.09 962.032 2840.09 986.032 2769.09 986.032Z" fill="#FFC000" fill-rule="nonzero" fill-opacity="1"/></g><g clip-path="url(#clip6)"><path d="M2239.5 1007.5 2918.5 1007.5" stroke="#D9D9D9" stroke-width="3.4375" stroke-linecap="butt" stroke-linejoin="round" stroke-miterlimit="10" stroke-opacity="1" fill="none" fill-rule="evenodd"/></g><g clip-path="url(#clip7)"><text fill="#595959" fill-opacity="1" font-family="Calibri,Calibri_MSFontService,sans-serif" font-style="normal" font-variant="normal" font-weight="400" font-stretch="normal" font-size="41" text-anchor="start" direction="ltr" writing-mode="lr-tb" unicode-bidi="normal" text-decoration="none" transform="matrix(1 0 0 1 2179.92 1018)">0</text></g><g clip-path="url(#clip8)"><text fill="#595959" fill-opacity="1" font-family="Calibri,Calibri_MSFontService,sans-serif" font-style="normal" font-variant="normal" font-weight="400" font-stretch="normal" font-size="41" text-anchor="start" direction="ltr" writing-mode="lr-tb" unicode-bidi="normal" text-decoration="none" transform="matrix(1 0 0 1 2159.02 899)">50</text></g><g clip-path="url(#clip9)"><text fill="#595959" fill-opacity="1" font-family="Calibri,Calibri_MSFontService,sans-serif" font-style="normal" font-variant="normal" font-weight="400" font-stretch="normal" font-size="41" text-anchor="start" direction="ltr" writing-mode="lr-tb" unicode-bidi="normal" text-decoration="none" transform="matrix(1 0 0 1 2138.12 780)">100</text></g><g clip-path="url(#clip10)"><text fill="#595959" fill-opacity="1" font-family="Calibri,Calibri_MSFontService,sans-serif" font-style="normal" font-variant="normal" font-weight="400" font-stretch="normal" font-size="41" text-anchor="start" direction="ltr" writing-mode="lr-tb" unicode-bidi="normal" text-decoration="none" transform="matrix(1 0 0 1 2138.12 661)">150</text></g><g clip-path="url(#clip11)"><text fill="#595959" fill-opacity="1" font-family="Calibri,Calibri_MSFontService,sans-serif" font-style="normal" font-variant="normal" font-weight="400" font-stretch="normal" font-size="41" text-anchor="start" direction="ltr" writing-mode="lr-tb" unicode-bidi="normal" text-decoration="none" transform="matrix(1 0 0 1 2138.12 542)">200</text></g><g clip-path="url(#clip12)"><text fill="#595959" fill-opacity="1" font-family="Calibri,Calibri_MSFontService,sans-serif" font-style="normal" font-variant="normal" font-weight="400" font-stretch="normal" font-size="41" text-anchor="start" direction="ltr" writing-mode="lr-tb" unicode-bidi="normal" text-decoration="none" transform="matrix(1 0 0 1 2138.12 423)">250</text></g><g clip-path="url(#clip13)"><text fill="#595959" fill-opacity="1" font-family="Calibri,Calibri_MSFontService,sans-serif" font-style="normal" font-variant="normal" font-weight="400" font-stretch="normal" font-size="41" text-anchor="start" direction="ltr" writing-mode="lr-tb" unicode-bidi="normal" text-decoration="none" transform="matrix(1 0 0 1 2138.12 304)">300</text></g><g clip-path="url(#clip14)"><text fill="#595959" fill-opacity="1" font-family="Calibri,Calibri_MSFontService,sans-serif" font-style="normal" font-variant="normal" font-weight="400" font-stretch="normal" font-size="41" text-anchor="start" direction="ltr" writing-mode="lr-tb" unicode-bidi="normal" text-decoration="none" transform="matrix(1 0 0 1 2138.12 185)">350</text></g><g clip-path="url(#clip15)"><text fill="#595959" fill-opacity="1" font-family="Calibri,Calibri_MSFontService,sans-serif" font-style="normal" font-variant="normal" font-weight="400" font-stretch="normal" font-size="41" text-anchor="start" direction="ltr" writing-mode="lr-tb" unicode-bidi="normal" text-decoration="none" transform="matrix(1 0 0 1 2288.82 1073)">musical</text></g><g clip-path="url(#clip16)"><text fill="#595959" fill-opacity="1" font-family="Calibri,Calibri_MSFontService,sans-serif" font-style="normal" font-variant="normal" font-weight="400" font-stretch="normal" font-size="41" text-anchor="start" direction="ltr" writing-mode="lr-tb" unicode-bidi="normal" text-decoration="none" transform="matrix(1 0 0 1 2535.78 1073)">plays</text></g><g clip-path="url(#clip17)"><text fill="#595959" fill-opacity="1" font-family="Calibri,Calibri_MSFontService,sans-serif" font-style="normal" font-variant="normal" font-weight="400" font-stretch="normal" font-size="41" text-anchor="start" direction="ltr" writing-mode="lr-tb" unicode-bidi="normal" text-decoration="none" transform="matrix(1 0 0 1 2749.17 1073)">spaces</text></g><g clip-path="url(#clip18)"><rect x="2990" y="493" width="23" height="23.0001" fill="#FFC000" fill-opacity="1"/></g><g clip-path="url(#clip19)"><text fill="#595959" fill-opacity="1" font-family="Calibri,Calibri_MSFontService,sans-serif" font-style="normal" font-variant="normal" font-weight="400" font-stretch="normal" font-size="41" text-anchor="start" direction="ltr" writing-mode="lr-tb" unicode-bidi="normal" text-decoration="none" transform="matrix(1 0 0 1 3022.5 515)">successful</text></g><g clip-path="url(#clip20)"><rect x="2990" y="570" width="23" height="23.0001" fill="#A5A5A5" fill-opacity="1"/></g><g clip-path="url(#clip21)"><text fill="#595959" fill-opacity="1" font-family="Calibri,Calibri_MSFontService,sans-serif" font-style="normal" font-variant="normal" font-weight="400" font-stretch="normal" font-size="41" text-anchor="start" direction="ltr" writing-mode="lr-tb" unicode-bidi="normal" text-decoration="none" transform="matrix(1 0 0 1 3022.5 592)">live</text></g><g clip-path="url(#clip22)"><rect x="2990" y="648" width="23" height="22" fill="#ED7D31" fill-opacity="1"/></g><g clip-path="url(#clip23)"><text fill="#595959" fill-opacity="1" font-family="Calibri,Calibri_MSFontService,sans-serif" font-style="normal" font-variant="normal" font-weight="400" font-stretch="normal" font-size="41" text-anchor="start" direction="ltr" writing-mode="lr-tb" unicode-bidi="normal" text-decoration="none" transform="matrix(1 0 0 1 3022.5 670)">failed</text></g><g clip-path="url(#clip24)"><rect x="2990" y="725" width="23" height="23.0001" fill="#4472C4" fill-opacity="1"/></g><g clip-path="url(#clip25)"><text fill="#595959" fill-opacity="1" font-family="Calibri,Calibri_MSFontService,sans-serif" font-style="normal" font-variant="normal" font-weight="400" font-stretch="normal" font-size="41" text-anchor="start" direction="ltr" writing-mode="lr-tb" unicode-bidi="normal" text-decoration="none" transform="matrix(1 0 0 1 3022.5 747)">canceled</text></g><rect x="2108.5" y="124.5" width="1137" height="990" stroke="#D9D9D9" stroke-width="3.4375" stroke-linecap="butt" stroke-linejoin="round" stroke-miterlimit="10" stroke-opacity="1" fill="none"/></g></svg>