<svg width="1655" height="994" xmlns="http://www.w3.org/2000/svg" xmlns:xlink="http://www.w3.org/1999/xlink" overflow="hidden"><defs><clipPath id="clip0"><rect x="2135" y="912" width="1655" height="994"/></clipPath><clipPath id="clip1"><rect x="2138" y="914" width="1650" height="990"/></clipPath><clipPath id="clip2"><rect x="2289" y="964" width="1175" height="699"/></clipPath><clipPath id="clip3"><rect x="2289" y="964" width="1175" height="699"/></clipPath><clipPath id="clip4"><rect x="2289" y="964" width="1175" height="699"/></clipPath><clipPath id="clip5"><rect x="2289" y="964" width="1175" height="699"/></clipPath><clipPath id="clip6"><rect x="2138" y="914" width="1650" height="990"/></clipPath><clipPath id="clip7"><rect x="2138" y="914" width="1650" height="990"/></clipPath><clipPath id="clip8"><rect x="2138" y="914" width="1650" height="990"/></clipPath><clipPath id="clip9"><rect x="2138" y="914" width="1650" height="990"/></clipPath><clipPath id="clip10"><rect x="2138" y="914" width="1650" height="990"/></clipPath><clipPath id="clip11"><rect x="2138" y="914" width="1650" height="990"/></clipPath><clipPath id="clip12"><rect x="2138" y="914" width="1650" height="990"/></clipPath><clipPath id="clip13"><rect x="2138" y="914" width="1650" height="990"/></clipPath><clipPath id="clip14"><rect x="2138" y="914" width="1650" height="990"/></clipPath><clipPath id="clip15"><rect x="2138" y="914" width="1650" height="990"/></clipPath><clipPath id="clip16"><rect x="2138" y="914" width="1650" height="990"/></clipPath><clipPath id="clip17"><rect x="2138" y="914" width="1650" height="990"/></clipPath><clipPath id="clip18"><rect x="2138" y="914" width="1650" height="990"/></clipPath><clipPath id="clip19"><rect x="2138" y="914" width="1650" height="990"/></clipPath><clipPath id="clip20"><rect x="2138" y="914" width="1650" height="990"/></clipPath><clipPath id="clip21"><rect x="2138" y="914" width="1650" height="990"/></clipPath><clipPath id="clip22"><rect x="2138" y="914" width="1650" height="990"/></clipPath><clipPath id="clip23"><rect x="2138" y="914" width="1650" height="990"/></clipPath><clipPath id="clip24"><rect x="2138" y="914" width="1650" height="990"/></clipPath><clipPath id="clip25"><rect x="2138" y="914" width="1650" height="990"/></clipPath><clipPath id="clip26"><rect x="2138" y="914" width="1650" height="990"/></clipPath><clipPath id="clip27"><rect x="2138" y="914" width="1650" height="990"/></clipPath><clipPath id="clip28"><rect x="2138" y="914" width="1650" height="990"/></clipPath><clipPath id="clip29"><rect x="2138" y="914" width="1650" height="990"/></clipPath><clipPath id="clip30"><rect x="2138" y="914" width="1650" height="990"/></clipPath><clipPath id="clip31"><rect x="2138" y="914" width="1650" height="990"/></clipPath><clipPath id="clip32"><rect x="2138" y="914" width="1650" height="990"/></clipPath><clipPath id="clip33"><rect x="2138" y="914" width="1650" height="990"/></clipPath><clipPath id="clip34"><rect x="2138" y="914" width="1650" height="990"/></clipPath><clipPath id="clip35"><rect x="2138" y="914" width="1650" height="990"/></clipPath></defs><g clip-path="url(#clip0)" transform="translate(-2135 -912)"><rect x="2138" y="914" width="1650" height="990" fill="#FFFFFF" fill-opacity="1"/><g clip-path="url(#clip1)"><path d="M2289.5 1590.55 3461.5 1590.55M2289.5 1520.55 3461.5 1520.55M2289.5 1451.55 3461.5 1451.55M2289.5 1381.55 3461.5 1381.55M2289.5 1312.54 3461.5 1312.54M2289.5 1242.54 3461.5 1242.54M2289.5 1173.54 3461.5 1173.54M2289.5 1103.54 3461.5 1103.54M2289.5 1034.53 3461.5 1034.53M2289.5 964.5 3461.5 964.5" stroke="#D9D9D9" stroke-width="3.4375" stroke-linecap="butt" stroke-linejoin="round" stroke-miterlimit="10" stroke-opacity="1" fill="none" fill-rule="nonzero"/></g><g clip-path="url(#clip2)"><path d="M2334.08 1638.05 2375.08 1638.05 2375.08 1660 2334.08 1660ZM2465.08 1649.05 2505.08 1649.05 2505.08 1660 2465.08 1660ZM2725.09 1644.05 2766.09 1644.05 2766.09 1660 2725.09 1660ZM2855.09 1647.05 2896.09 1647.05 2896.09 1660 2855.09 1660ZM3115.1 1645.05 3156.1 1645.05 3156.1 1660 3115.1 1660ZM3246.11 1576.05 3286.11 1576.05 3286.11 1660 3246.11 1660ZM3376.11 1642.05 3417.11 1642.05 3417.11 1660 3376.11 1660Z" fill="#4472C4" fill-rule="nonzero" fill-opacity="1"/></g><g clip-path="url(#clip3)"><path d="M2334.08 1548.05 2375.08 1548.05 2375.08 1638.05 2334.08 1638.05ZM2465.08 1569.05 2505.08 1569.05 2505.08 1649.05 2465.08 1649.05ZM2595.08 1593.05 2636.09 1593.05 2636.09 1660 2595.08 1660ZM2855.09 1570.05 2896.09 1570.05 2896.09 1647.05 2855.09 1647.05ZM2985.1 1610.05 3026.1 1610.05 3026.1 1660 2985.1 1660ZM3115.1 1584.05 3156.1 1584.05 3156.1 1645.05 3115.1 1645.05ZM3246.11 1480.05 3286.11 1480.05 3286.11 1576.05 3246.11 1576.05ZM3376.11 1399.05 3417.11 1399.05 3417.11 1642.05 3376.11 1642.05Z" fill="#ED7D31" fill-rule="nonzero" fill-opacity="1"/></g><g clip-path="url(#clip4)"><path d="M2465.08 1567.05 2505.08 1567.05 2505.08 1569.05 2465.08 1569.05ZM2855.09 1558.05 2896.09 1558.05 2896.09 1570.05 2855.09 1570.05ZM3376.11 1391.05 3417.11 1391.05 3417.11 1399.05 3376.11 1399.05Z" fill="#A5A5A5" fill-rule="nonzero" fill-opacity="1"/></g><g clip-path="url(#clip5)"><path d="M2334.08 1367.04 2375.08 1367.04 2375.08 1548.05 2334.08 1548.05ZM2465.08 1543.05 2505.08 1543.05 2505.08 1567.05 2465.08 1567.05ZM2595.08 1557.05 2636.09 1557.05 2636.09 1593.05 2595.08 1593.05ZM2855.09 1218.04 2896.09 1218.04 2896.09 1558.05 2855.09 1558.05ZM2985.1 1567.05 3026.1 1567.05 3026.1 1610.05 2985.1 1610.05ZM3115.1 1536.05 3156.1 1536.05 3156.1 1584.05 3115.1 1584.05ZM3246.11 1370.04 3286.11 1370.04 3286.11 1480.05 3246.11 1480.05ZM3376.11 1026.03 3417.11 1026.03 3417.11 1391.05 3376.11 1391.05Z" fill="#FFC000" fill-rule="nonzero" fill-opacity="1"/></g><g clip-path="url(#clip6)"><path d="M2289.5 1659.5 3461.5 1659.5" stroke="#D9D9D9" stroke-width="3.4375" stroke-linecap="butt" stroke-linejoin="round" stroke-miterlimit="10" stroke-opacity="1" fill="none" fill-rule="evenodd"/></g><g clip-path="url(#clip7)"><text fill="#595959" fill-opacity="1" font-family="Calibri,Calibri_MSFontService,sans-serif" font-style="normal" font-variant="normal" font-weight="400" font-stretch="normal" font-size="41" text-anchor="start" direction="ltr" writing-mode="lr-tb" unicode-bidi="normal" text-decoration="none" transform="matrix(1 0 0 1 2230.62 1670)">0</text></g><g clip-path="url(#clip8)"><text fill="#595959" fill-opacity="1" font-family="Calibri,Calibri_MSFontService,sans-serif" font-style="normal" font-variant="normal" font-weight="400" font-stretch="normal" font-size="41" text-anchor="start" direction="ltr" writing-mode="lr-tb" unicode-bidi="normal" text-decoration="none" transform="matrix(1 0 0 1 2188.82 1600)">100</text></g><g clip-path="url(#clip9)"><text fill="#595959" fill-opacity="1" font-family="Calibri,Calibri_MSFontService,sans-serif" font-style="normal" font-variant="normal" font-weight="400" font-stretch="normal" font-size="41" text-anchor="start" direction="ltr" writing-mode="lr-tb" unicode-bidi="normal" text-decoration="none" transform="matrix(1 0 0 1 2188.82 1531)">200</text></g><g clip-path="url(#clip10)"><text fill="#595959" fill-opacity="1" font-family="Calibri,Calibri_MSFontService,sans-serif" font-style="normal" font-variant="normal" font-weight="400" font-stretch="normal" font-size="41" text-anchor="start" direction="ltr" writing-mode="lr-tb" unicode-bidi="normal" text-decoration="none" transform="matrix(1 0 0 1 2188.82 1461)">300</text></g><g clip-path="url(#clip11)"><text fill="#595959" fill-opacity="1" font-family="Calibri,Calibri_MSFontService,sans-serif" font-style="normal" font-variant="normal" font-weight="400" font-stretch="normal" font-size="41" text-anchor="start" direction="ltr" writing-mode="lr-tb" unicode-bidi="normal" text-decoration="none" transform="matrix(1 0 0 1 2188.82 1392)">400</text></g><g clip-path="url(#clip12)"><text fill="#595959" fill-opacity="1" font-family="Calibri,Calibri_MSFontService,sans-serif" font-style="normal" font-variant="normal" font-weight="400" font-stretch="normal" font-size="41" text-anchor="start" direction="ltr" writing-mode="lr-tb" unicode-bidi="normal" text-decoration="none" transform="matrix(1 0 0 1 2188.82 1322)">500</text></g><g clip-path="url(#clip13)"><text fill="#595959" fill-opacity="1" font-family="Calibri,Calibri_MSFontService,sans-serif" font-style="normal" font-variant="normal" font-weight="400" font-stretch="normal" font-size="41" text-anchor="start" direction="ltr" writing-mode="lr-tb" unicode-bidi="normal" text-decoration="none" transform="matrix(1 0 0 1 2188.82 1253)">600</text></g><g clip-path="url(#clip14)"><text fill="#595959" fill-opacity="1" font-family="Calibri,Calibri_MSFontService,sans-serif" font-style="normal" font-variant="normal" font-weight="400" font-stretch="normal" font-size="41" text-anchor="start" direction="ltr" writing-mode="lr-tb" unicode-bidi="normal" text-decoration="none" transform="matrix(1 0 0 1 2188.82 1183)">700</text></g><g clip-path="url(#clip15)"><text fill="#595959" fill-opacity="1" font-family="Calibri,Calibri_MSFontService,sans-serif" font-style="normal" font-variant="normal" font-weight="400" font-stretch="normal" font-size="41" text-anchor="start" direction="ltr" writing-mode="lr-tb" unicode-bidi="normal" text-decoration="none" transform="matrix(1 0 0 1 2188.82 1114)">800</text></g><g clip-path="url(#clip16)"><text fill="#595959" fill-opacity="1" font-family="Calibri,Calibri_MSFontService,sans-serif" font-style="normal" font-variant="normal" font-weight="400" font-stretch="normal" font-size="41" text-anchor="start" direction="ltr" writing-mode="lr-tb" unicode-bidi="normal" text-decoration="none" transform="matrix(1 0 0 1 2188.82 1044)">900</text></g><g clip-path="url(#clip17)"><text fill="#595959" fill-opacity="1" font-family="Calibri,Calibri_MSFontService,sans-serif" font-style="normal" font-variant="normal" font-weight="400" font-stretch="normal" font-size="41" text-anchor="start" direction="ltr" writing-mode="lr-tb" unicode-bidi="normal" text-decoration="none" transform="matrix(1 0 0 1 2167.92 975)">1000</text></g><g clip-path="url(#clip18)"><text fill="#595959" fill-opacity="1" font-family="Calibri,Calibri_MSFontService,sans-serif" font-style="normal" font-variant="normal" font-weight="400" font-stretch="normal" font-size="41" text-anchor="start" direction="ltr" writing-mode="lr-tb" unicode-bidi="normal" text-decoration="none" transform="matrix(0.707107 -0.707107 0.707107 0.707107 2220.88 1857)">film &amp; video</text></g><g clip-path="url(#clip19)"><text fill="#595959" fill-opacity="1" font-family="Calibri,Calibri_MSFontService,sans-serif" font-style="normal" font-variant="normal" font-weight="400" font-stretch="normal" font-size="41" text-anchor="start" direction="ltr" writing-mode="lr-tb" unicode-bidi="normal" text-decoration="none" transform="matrix(0.707107 -0.707107 0.707107 0.707107 2439.83 1769)">food</text></g><g clip-path="url(#clip20)"><text fill="#595959" fill-opacity="1" font-family="Calibri,Calibri_MSFontService,sans-serif" font-style="normal" font-variant="normal" font-weight="400" font-stretch="normal" font-size="41" text-anchor="start" direction="ltr" writing-mode="lr-tb" unicode-bidi="normal" text-decoration="none" transform="matrix(0.707107 -0.707107 0.707107 0.707107 2548.06 1791)">games</text></g><g clip-path="url(#clip21)"><text fill="#595959" fill-opacity="1" font-family="Calibri,Calibri_MSFontService,sans-serif" font-style="normal" font-variant="normal" font-weight="400" font-stretch="normal" font-size="41" text-anchor="start" direction="ltr" writing-mode="lr-tb" unicode-bidi="normal" text-decoration="none" transform="matrix(0.707107 -0.707107 0.707107 0.707107 2629.89 1839)">journalism</text></g><g clip-path="url(#clip22)"><text fill="#595959" fill-opacity="1" font-family="Calibri,Calibri_MSFontService,sans-serif" font-style="normal" font-variant="normal" font-weight="400" font-stretch="normal" font-size="41" text-anchor="start" direction="ltr" writing-mode="lr-tb" unicode-bidi="normal" text-decoration="none" transform="matrix(0.707107 -0.707107 0.707107 0.707107 2816.26 1783)">music</text></g><g clip-path="url(#clip23)"><text fill="#595959" fill-opacity="1" font-family="Calibri,Calibri_MSFontService,sans-serif" font-style="normal" font-variant="normal" font-weight="400" font-stretch="normal" font-size="41" text-anchor="start" direction="ltr" writing-mode="lr-tb" unicode-bidi="normal" text-decoration="none" transform="matrix(0.707107 -0.707107 0.707107 0.707107 2862.57 1867)">photography</text></g><g clip-path="url(#clip24)"><text fill="#595959" fill-opacity="1" font-family="Calibri,Calibri_MSFontService,sans-serif" font-style="normal" font-variant="normal" font-weight="400" font-stretch="normal" font-size="41" text-anchor="start" direction="ltr" writing-mode="lr-tb" unicode-bidi="normal" text-decoration="none" transform="matrix(0.707107 -0.707107 0.707107 0.707107 3023.8 1835)">publishing</text></g><g clip-path="url(#clip25)"><text fill="#595959" fill-opacity="1" font-family="Calibri,Calibri_MSFontService,sans-serif" font-style="normal" font-variant="normal" font-weight="400" font-stretch="normal" font-size="41" text-anchor="start" direction="ltr" writing-mode="lr-tb" unicode-bidi="normal" text-decoration="none" transform="matrix(0.707107 -0.707107 0.707107 0.707107 3144.16 1845)">technology</text></g><g clip-path="url(#clip26)"><text fill="#595959" fill-opacity="1" font-family="Calibri,Calibri_MSFontService,sans-serif" font-style="normal" font-variant="normal" font-weight="400" font-stretch="normal" font-size="41" text-anchor="start" direction="ltr" writing-mode="lr-tb" unicode-bidi="normal" text-decoration="none" transform="matrix(0.707107 -0.707107 0.707107 0.707107 3317.94 1802)">theater</text></g><g clip-path="url(#clip27)"><text fill="#595959" fill-opacity="1" font-family="Calibri,Calibri_MSFontService,sans-serif" font-style="normal" font-variant="normal" font-weight="400" font-stretch="normal" font-size="64" text-anchor="start" direction="ltr" writing-mode="lr-tb" unicode-bidi="normal" text-decoration="none" transform="matrix(1 0 0 1 2614.31 1010)">Parent Category Outcomes</text></g><g clip-path="url(#clip28)"><rect x="3533" y="1284" width="23" height="22" fill="#FFC000" fill-opacity="1"/></g><g clip-path="url(#clip29)"><text fill="#595959" fill-opacity="1" font-family="Calibri,Calibri_MSFontService,sans-serif" font-style="normal" font-variant="normal" font-weight="400" font-stretch="normal" font-size="41" text-anchor="start" direction="ltr" writing-mode="lr-tb" unicode-bidi="normal" text-decoration="none" transform="matrix(1 0 0 1 3565.63 1305)">successful</text></g><g clip-path="url(#clip30)"><rect x="3533" y="1361" width="23" height="23" fill="#A5A5A5" fill-opacity="1"/></g><g clip-path="url(#clip31)"><text fill="#595959" fill-opacity="1" font-family="Calibri,Calibri_MSFontService,sans-serif" font-style="normal" font-variant="normal" font-weight="400" font-stretch="normal" font-size="41" text-anchor="start" direction="ltr" writing-mode="lr-tb" unicode-bidi="normal" text-decoration="none" transform="matrix(1 0 0 1 3565.63 1382)">live</text></g><g clip-path="url(#clip32)"><rect x="3533" y="1438" width="23" height="23" fill="#ED7D31" fill-opacity="1"/></g><g clip-path="url(#clip33)"><text fill="#595959" fill-opacity="1" font-family="Calibri,Calibri_MSFontService,sans-serif" font-style="normal" font-variant="normal" font-weight="400" font-stretch="normal" font-size="41" text-anchor="start" direction="ltr" writing-mode="lr-tb" unicode-bidi="normal" text-decoration="none" transform="matrix(1 0 0 1 3565.63 1460)">failed</text></g><g clip-path="url(#clip34)"><rect x="3533" y="1516" width="23" height="22" fill="#4472C4" fill-opacity="1"/></g><g clip-path="url(#clip35)"><text fill="#595959" fill-opacity="1" font-family="Calibri,Calibri_MSFontService,sans-serif" font-style="normal" font-variant="normal" font-weight="400" font-stretch="normal" font-size="41" text-anchor="start" direction="ltr" writing-mode="lr-tb" unicode-bidi="normal" text-decoration="none" transform="matrix(1 0 0 1 3565.63 1537)">canceled</text></g><rect x="2138.5" y="914.5" width="1650" height="990" stroke="#D9D9D9" stroke-width="3.4375" stroke-linecap="butt" stroke-linejoin="round" stroke-miterlimit="10" stroke-opacity="1" fill="none"/></g></svg>